<?xml version="1.0" encoding="utf-8"?>
<!-- Generator: Adobe Illustrator 22.0.1, SVG Export Plug-In . SVG Version: 6.00 Build 0)  -->
<svg version="1.1"
	 id="svg2" xmlns:cc="http://creativecommons.org/ns#" xmlns:dc="http://purl.org/dc/elements/1.1/" xmlns:inkscape="http://www.inkscape.org/namespaces/inkscape" xmlns:rdf="http://www.w3.org/1999/02/22-rdf-syntax-ns#" xmlns:sodipodi="http://sodipodi.sourceforge.net/DTD/sodipodi-0.dtd" xmlns:svg="http://www.w3.org/2000/svg"
	 xmlns="http://www.w3.org/2000/svg" xmlns:xlink="http://www.w3.org/1999/xlink" x="0px" y="0px" viewBox="0 0 32 32"
	 style="enable-background:new 0 0 32 32;" xml:space="preserve">
<style type="text/css">
	.st0{fill:#1512F3;}
	.st1{fill:#1512F3;stroke:#1512F3;stroke-width:0.5;stroke-miterlimit:10;}
</style>
<script  id="script3301" xlink:href=""></script>
<script  id="script3299" xlink:href=""></script>
<g>
	<path id="path3178" class="st0" d="M0,29.1V2.9C0,1.3,1.3,0,2.9,0h26.2C30.7,0,32,1.3,32,2.9v26.2c0,1.6-1.3,2.9-2.9,2.9H2.9
		C1.3,32,0,30.7,0,29.1z M31,29.1V2.9c0-1-0.9-1.9-1.9-1.9H2.9C1.9,1,1,1.9,1,2.9v26.2c0,1,0.9,1.9,1.9,1.9h26.2
		C30.1,31,31,30.1,31,29.1z"/>
	<path class="st1" d="M12.8,20.1c0.2-0.2,0.4-0.4,0.6-0.6c0.1-0.3,0.2-0.6,0.2-1c0-0.8-0.2-1.3-0.7-1.7c-0.4-0.3-1-0.5-1.7-0.5H8
		c-0.1,0-0.2,0.1-0.2,0.2v3.7c0,0.1,0.1,0.2,0.2,0.2h3.2c0.3,0,0.6,0,0.9-0.1C12.4,20.4,12.6,20.3,12.8,20.1z M11.2,20.1h-3v-3.3h3
		c0.6,0,1.1,0.1,1.4,0.4c0.3,0.3,0.5,0.7,0.5,1.3c0,0.3-0.1,0.6-0.2,0.8c-0.1,0.2-0.2,0.3-0.4,0.5C12.4,19.9,12.2,20,12,20
		C11.7,20.1,11.5,20.1,11.2,20.1z"/>
	<path class="st1" d="M5,22.9h6.5c0.6,0,1.2-0.1,1.8-0.2c0.6-0.2,1.1-0.4,1.6-0.7c0.5-0.3,0.9-0.8,1.1-1.3c0.3-0.5,0.4-1.2,0.4-1.9
		c0-0.9-0.2-1.7-0.7-2.3c-0.4-0.5-0.8-0.9-1.5-1.2c0.4-0.3,0.8-0.6,1-0.9c0.3-0.5,0.5-1.1,0.5-1.8s-0.1-1.2-0.3-1.7s-0.5-0.8-1-1.1
		C14,9.5,13.5,9.3,13,9.2S11.9,9,11.2,9H5C4.9,8.9,4.8,9,4.8,9.1v13.5C4.8,22.8,4.9,22.9,5,22.9z M5.3,9.4h6.1
		c0.6,0,1.2,0.1,1.7,0.2c0.5,0.1,0.9,0.3,1.3,0.5c0.3,0.2,0.6,0.6,0.8,0.9c0.2,0.4,0.3,0.9,0.3,1.5s-0.1,1.2-0.4,1.6
		c-0.3,0.4-0.7,0.8-1.3,1c-0.1,0-0.1,0.1-0.1,0.2c0,0.1,0.1,0.2,0.2,0.2c0.8,0.2,1.4,0.6,1.7,1.2c0.4,0.6,0.6,1.2,0.6,2
		c0,0.6-0.1,1.2-0.4,1.7c-0.2,0.5-0.6,0.8-1,1.1c-0.4,0.3-0.9,0.5-1.5,0.7c-0.5,0.1-1.1,0.2-1.7,0.2H5.3V9.4z"/>
	<path class="st1" d="M8,14.8h3c0.6,0,1.1-0.1,1.4-0.4c0.4-0.3,0.6-0.8,0.6-1.4c0-0.4-0.1-0.7-0.2-0.9c-0.1-0.2-0.3-0.4-0.5-0.6
		c-0.2-0.1-0.5-0.2-0.7-0.3c-0.2,0-0.5-0.1-0.8-0.1H8c-0.1,0-0.2,0.1-0.2,0.2v3.2C7.8,14.7,7.9,14.8,8,14.8z M8.2,11.7h2.6
		c0.3,0,0.5,0,0.7,0.1c0.2,0,0.4,0.1,0.6,0.2c0.2,0.1,0.3,0.2,0.4,0.4c0.1,0.2,0.1,0.4,0.1,0.7c0,0.5-0.1,0.8-0.4,1
		c-0.3,0.2-0.7,0.3-1.2,0.3H8.2V11.7z"/>
	<path class="st1" d="M19.9,16.9h4.4c0.1,0,0.1,0,0.2-0.1c0,0,0.1-0.1,0.1-0.2c-0.1-0.7-0.3-1.3-0.7-1.7l0,0c-0.4-0.4-1-0.6-1.7-0.6
		c-0.5,0-0.9,0.1-1.2,0.2c-0.3,0.2-0.6,0.4-0.8,0.6c-0.2,0.2-0.3,0.5-0.4,0.8c-0.1,0.3-0.1,0.5-0.1,0.7c0,0.1,0,0.1,0.1,0.2
		C19.8,16.9,19.8,16.9,19.9,16.9z M20.3,16.1c0.1-0.2,0.2-0.4,0.3-0.6c0.2-0.2,0.4-0.4,0.6-0.5s0.6-0.2,1-0.2c0.6,0,1.1,0.2,1.3,0.5
		c0.3,0.3,0.4,0.7,0.5,1.2h-3.8C20.2,16.4,20.2,16.2,20.3,16.1z"/>
	<path class="st1" d="M18.4,21.6c0.5,0.5,1,0.8,1.7,1.1c0.6,0.3,1.4,0.4,2.2,0.4c1.2,0,2.1-0.3,3-0.8c0.8-0.5,1.4-1.4,1.8-2.6
		c0-0.1,0-0.1,0-0.2s-0.1-0.1-0.2-0.1h-2.4c-0.1,0-0.2,0.1-0.2,0.2c-0.1,0.3-0.3,0.5-0.6,0.7c-0.4,0.2-0.8,0.4-1.3,0.4
		c-0.7,0-1.2-0.2-1.6-0.5l0,0c-0.3-0.3-0.5-0.9-0.6-1.5H27c0.1,0,0.2-0.1,0.2-0.2c0.1-0.8,0-1.5-0.2-2.3c-0.2-0.7-0.5-1.4-0.9-1.9
		c-0.4-0.6-1-1-1.6-1.4c-0.6-0.3-1.4-0.5-2.3-0.5c-0.8,0-1.5,0.1-2.1,0.4c-0.6,0.3-1.2,0.7-1.7,1.1c-0.5,0.5-0.8,1-1.1,1.7
		C17.1,16.3,17,17,17,17.7c0,0.8,0.1,1.5,0.4,2.2C17.6,20.6,17.9,21.1,18.4,21.6z M17.8,15.8c0.2-0.6,0.6-1.1,1-1.6
		c0.4-0.4,0.9-0.8,1.5-1c0.6-0.3,1.2-0.4,1.9-0.4c0.8,0,1.5,0.2,2.1,0.5s1.1,0.7,1.4,1.2c0.4,0.5,0.7,1.1,0.8,1.8
		c0.2,0.6,0.2,1.2,0.2,1.9h-6.8c-0.1,0-0.2,0.1-0.2,0.2c0,0.8,0.3,1.6,0.7,2.1c0.4,0.4,1.1,0.7,1.9,0.7c0.6,0,1.1-0.2,1.5-0.5
		s0.6-0.5,0.7-0.8h1.9c-0.4,1-0.9,1.7-1.5,2.1c-0.7,0.5-1.6,0.7-2.7,0.7c-0.7,0-1.4-0.1-2-0.4c-0.6-0.2-1.1-0.6-1.5-1
		s-0.7-0.9-0.9-1.6c-0.2-0.6-0.3-1.3-0.3-2C17.4,17,17.6,16.4,17.8,15.8z"/>
	<path class="st1" d="M19.4,11.6h5.5c0.1,0,0.2-0.1,0.2-0.2V10c0-0.1-0.1-0.2-0.2-0.2h-5.5c-0.1,0-0.2,0.1-0.2,0.2v1.3
		C19.1,11.5,19.2,11.6,19.4,11.6z M19.6,10.3h5v0.9h-5V10.3z"/>
</g>
</svg>
