<?xml version="1.0" encoding="utf-8"?>
<!-- Generator: Adobe Illustrator 22.0.1, SVG Export Plug-In . SVG Version: 6.00 Build 0)  -->
<svg version="1.1"
	 id="svg2" xmlns:cc="http://creativecommons.org/ns#" xmlns:dc="http://purl.org/dc/elements/1.1/" xmlns:inkscape="http://www.inkscape.org/namespaces/inkscape" xmlns:rdf="http://www.w3.org/1999/02/22-rdf-syntax-ns#" xmlns:sodipodi="http://sodipodi.sourceforge.net/DTD/sodipodi-0.dtd" xmlns:svg="http://www.w3.org/2000/svg"
	 xmlns="http://www.w3.org/2000/svg" xmlns:xlink="http://www.w3.org/1999/xlink" x="0px" y="0px" viewBox="0 0 32 32"
	 style="enable-background:new 0 0 32 32;" xml:space="preserve">
<style type="text/css">
	.st0{fill:#FFFFFF;}
	.st1{fill:none;stroke:#FFFFFF;stroke-width:0.98;}
</style>
<script  id="script3301" xlink:href=""></script>
<script  id="script3299" xlink:href=""></script>
<g id="g3174" transform="matrix(0.64050449,0,0,0.64031522,0,25.600003)">
	<path id="path3178" class="st0" d="M0,5.4v-40.8C0-37.9,2-40,4.6-40h40.8c2.5,0,4.6,2,4.6,4.6V5.4c0,2.5-2,4.6-4.6,4.6H4.6
		C2,10,0,7.9,0,5.4z M48.4,5.4v-40.8c0-1.7-1.3-3-3-3H4.6c-1.7,0-3,1.3-3,3V5.4c0,1.7,1.3,3,3,3h40.8C47.1,8.4,48.4,7.1,48.4,5.4z"
		/>
	<path id="Stroke-52" class="st1" d="M44.2-15.2c0,8.5-5.5,15.6-13,18.2c-1,0.2-1.3-0.4-1.3-0.9c0-0.6,0-2.7,0-5.3
		c0-1.8-0.6-3-1.3-3.5c4.2-0.5,8.7-2.1,8.7-9.5c0-2.1-0.7-3.8-2-5.1c0.2-0.5,0.9-2.4-0.2-5.1c0,0-1.6-0.5-5.2,2
		c-1.5-0.4-3.2-0.6-4.8-0.6c-1.6,0-3.3,0.2-4.8,0.6c-3.6-2.5-5.2-2-5.2-2c-1,2.6-0.4,4.6-0.2,5.1c-1.2,1.3-2,3.1-2,5.1
		c0,7.3,4.5,9,8.7,9.5c-0.5,0.5-1,1.3-1.2,2.6c-1.1,0.5-3.9,1.3-5.6-1.6c0,0-1-1.8-2.9-2c0,0-1.9,0-0.1,1.2c0,0,1.3,0.6,2.1,2.8
		c0,0,1.1,3.7,6.4,2.6c0,1.6,0,2.8,0,3.3c0,0.4-0.3,1-1.3,0.8C11.5,0.5,6-6.7,6-15.2c0-10.6,8.5-19.2,19.1-19.2S44.2-25.8,44.2-15.2
		L44.2-15.2z"/>
</g>
</svg>
