<?xml version="1.0" encoding="utf-8"?>
<!-- Generator: Adobe Illustrator 22.0.1, SVG Export Plug-In . SVG Version: 6.00 Build 0)  -->
<svg version="1.1"
	 id="svg2" xmlns:cc="http://creativecommons.org/ns#" xmlns:dc="http://purl.org/dc/elements/1.1/" xmlns:inkscape="http://www.inkscape.org/namespaces/inkscape" xmlns:rdf="http://www.w3.org/1999/02/22-rdf-syntax-ns#" xmlns:sodipodi="http://sodipodi.sourceforge.net/DTD/sodipodi-0.dtd" xmlns:svg="http://www.w3.org/2000/svg"
	 xmlns="http://www.w3.org/2000/svg" xmlns:xlink="http://www.w3.org/1999/xlink" x="0px" y="0px" viewBox="0 0 32 32"
	 style="enable-background:new 0 0 32 32;" xml:space="preserve">
<style type="text/css">
	.st0{fill:#1512F3;}
	.st1{fill:none;stroke:#1512F3;stroke-width:1.0386;stroke-linecap:round;stroke-linejoin:round;}
</style>
<script  id="script3301" xlink:href=""></script>
<script  id="script3299" xlink:href=""></script>
<g id="Instagram">
	<g id="_Group_">
		<g id="_Path_">
			<path class="st0" d="M23.6,1c4,0,7.3,3.3,7.3,7.3v15.3c0,4-3.3,7.3-7.3,7.3H8.4c-4,0-7.3-3.3-7.3-7.3V8.4C1,4.3,4.3,1,8.4,1H23.6
				 M23.6,0H8.4C3.7,0,0,3.7,0,8.4v15.3C0,28.3,3.7,32,8.4,32h15.3c4.6,0,8.4-3.7,8.4-8.4V8.4C32,3.7,28.3,0,23.6,0L23.6,0z"/>
		</g>
		<g id="_Path_2">
			<path class="st0" d="M16,8.7c4,0,7.3,3.3,7.3,7.3S20,23.3,16,23.3S8.7,20,8.7,16S12,8.7,16,8.7 M16,7.6c-4.6,0-8.4,3.8-8.4,8.4
				s3.8,8.4,8.4,8.4s8.4-3.8,8.4-8.4S20.6,7.6,16,7.6L16,7.6z"/>
		</g>
		<circle id="_Path_3" class="st1" cx="25.1" cy="5.3" r="0.8"/>
	</g>
</g>
</svg>
