<?xml version="1.0" encoding="utf-8"?>
<!-- Generator: Adobe Illustrator 22.0.1, SVG Export Plug-In . SVG Version: 6.00 Build 0)  -->
<svg version="1.1"
	 id="svg2" xmlns:cc="http://creativecommons.org/ns#" xmlns:dc="http://purl.org/dc/elements/1.1/" xmlns:inkscape="http://www.inkscape.org/namespaces/inkscape" xmlns:rdf="http://www.w3.org/1999/02/22-rdf-syntax-ns#" xmlns:sodipodi="http://sodipodi.sourceforge.net/DTD/sodipodi-0.dtd" xmlns:svg="http://www.w3.org/2000/svg"
	 xmlns="http://www.w3.org/2000/svg" xmlns:xlink="http://www.w3.org/1999/xlink" x="0px" y="0px" viewBox="0 0 32 32"
	 style="enable-background:new 0 0 32 32;" xml:space="preserve">
<style type="text/css">
	.st0{fill:#1512F3;}
</style>
<script  id="script3301" xlink:href=""></script>
<script  id="script3299" xlink:href=""></script>
<g id="g3174" transform="matrix(0.64050449,0,0,0.64031522,0,25.600003)">
	<path id="path3178" class="st0" d="M0,5.4v-40.8C0-37.9,2-40,4.6-40h40.8c2.5,0,4.6,2,4.6,4.6V5.4c0,2.5-2,4.6-4.6,4.6H4.6
		C2,10,0,7.9,0,5.4z M48.4,5.4v-40.8c0-1.7-1.3-3-3-3H4.6c-1.7,0-3,1.3-3,3V5.4c0,1.7,1.3,3,3,3h40.8C47.1,8.4,48.4,7.1,48.4,5.4z"
		/>
	<path id="path3281" class="st0" d="M9.3-0.1v-20c0-0.4,0.3-0.8,0.8-0.8h6.5c0.4,0,0.8,0.4,0.8,0.8v20c0,0.4-0.4,0.8-0.8,0.8h-6.5
		C9.7,0.6,9.3,0.3,9.3-0.1z M15.8-0.9v-18.5h-5v18.5C10.8-0.9,15.8-0.9,15.8-0.9z M8.9-26.4c0-2.4,1.8-4.2,4.5-4.2s4.4,1.8,4.4,4.2
		c0,2.4-1.8,4.3-4.5,4.3C10.7-22.1,8.9-24,8.9-26.4z M16.2-26.4c0-1.5-1.1-2.7-2.9-2.7s-2.9,1.2-2.9,2.7c0,1.5,1.1,2.7,2.8,2.7
		C15.2-23.7,16.2-24.9,16.2-26.4z"/>
	<path id="path3283" class="st0" d="M20.3-0.1c0,0,0.1-18,0-19.8c0-0.4,0.3-0.8,0.8-0.8h6.7c0.4,0,0.8,0.4,0.8,0.8v0.7l0.4-0.3
		c1.1-0.9,2.6-1.6,4.9-1.6c4.9,0,8.4,3.2,8.4,9.7V0c0,0.4-0.4,0.8-0.8,0.8h-6.7C34.4,0.8,34,0.5,34,0v-10.6c0-2.4-0.7-3.7-2.6-3.7
		c-1.4,0-2.3,0.9-2.7,1.9c-0.1,0.3-0.2,0.7-0.2,1.3V0c0,0.4-0.4,0.8-0.8,0.8H21C20.6,0.6,20.3,0.3,20.3-0.1z M27-0.9v-10.3
		c0-0.6,0-1.3,0.3-1.9c0.5-1.4,1.9-2.9,4.1-2.9c3.1,0,4.1,2.5,4.1,5.3v9.8h5.1v-10.6c0-5.7-3-8.2-6.9-8.2c-1.8,0-3,0.6-3.9,1.3
		l-0.7,0.7l-0.6,0.9c-0.1,0.3-0.4,0.5-0.8,0.5c-0.5,0-0.8-0.4-0.8-0.8v-0.2v-1.8h-5.1v0.1c0,3.5,0,14.2,0,17.8v0.4L27-0.9L27-0.9z"
		/>
</g>
</svg>
