<?xml version="1.0" encoding="utf-8"?>
<!-- Generator: Adobe Illustrator 22.0.1, SVG Export Plug-In . SVG Version: 6.00 Build 0)  -->
<svg version="1.1"
	 id="svg2" xmlns:cc="http://creativecommons.org/ns#" xmlns:dc="http://purl.org/dc/elements/1.1/" xmlns:inkscape="http://www.inkscape.org/namespaces/inkscape" xmlns:rdf="http://www.w3.org/1999/02/22-rdf-syntax-ns#" xmlns:sodipodi="http://sodipodi.sourceforge.net/DTD/sodipodi-0.dtd" xmlns:svg="http://www.w3.org/2000/svg"
	 xmlns="http://www.w3.org/2000/svg" xmlns:xlink="http://www.w3.org/1999/xlink" x="0px" y="0px" viewBox="0 0 32 32"
	 style="enable-background:new 0 0 32 32;" xml:space="preserve">
<style type="text/css">
	.st0{fill:#FFFFFF;}
	.st1{fill:none;stroke:#FFFFFF;}
</style>
<script  id="script3301" xlink:href=""></script>
<script  id="script3299" xlink:href=""></script>
<g>
	<path id="path3178" class="st0" d="M0,29.1V2.9C0,1.3,1.3,0,2.9,0h26.2C30.7,0,32,1.3,32,2.9v26.2c0,1.6-1.3,2.9-2.9,2.9H2.9
		C1.3,32,0,30.7,0,29.1z M31,29.1V2.9c0-1-0.9-1.9-1.9-1.9H2.9C1.9,1,1,1.9,1,2.9v26.2c0,1,0.9,1.9,1.9,1.9h26.2
		C30.1,31,31,30.1,31,29.1z"/>
	<path id="Stroke-28" class="st1" d="M21.7,20c0.2-0.7,0.2-1.2,0.2-1.4c-0.1-0.1-0.3-0.2-0.5-0.3c-0.3-0.1-1.7-0.8-2-0.9
		s-0.5-0.1-0.7,0.2c-0.3,0.4-0.5,0.8-0.8,1c-0.2,0.2-0.5,0.2-0.7,0.1c-0.3-0.1-1.2-0.4-2.3-1.4c-0.8-0.8-1.4-1.7-1.6-2
		c-0.2-0.3,0-0.5,0.1-0.6c0.1-0.2,0.3-0.3,0.4-0.5c0.1-0.2,0.2-0.3,0.3-0.5s0-0.4,0-0.5c-0.1-0.1-0.6-1.6-0.9-2.1
		c-0.2-0.5-0.3-0.5-0.6-0.5c-0.1,0-0.2,0-0.3,0c-0.4,0-0.8,0.1-1,0.4c-0.3,0.3-1,1-1,2.4s1,2.8,1.2,3c0.1,0.2,2,3.1,4.9,4.3
		c2.3,0.9,2.9,0.8,3.4,0.7C20.5,21.3,21.5,20.7,21.7,20L21.7,20z M16,6.2c5.4,0,9.8,4.4,9.8,9.8s-4.4,9.8-9.8,9.8
		c-2,0-3.8-0.6-5.4-1.6l-3.8,1.2L8,21.8c-1.2-1.6-1.9-3.6-1.9-5.8c0-2.7,1.1-5.2,2.9-6.9C10.8,7.3,13.3,6.2,16,6.2L16,6.2L16,6.2z"
		/>
</g>
</svg>
